<?xml version="1.0" encoding="UTF-8"?>
<svg id="_图层_1" data-name="图层_1" xmlns="http://www.w3.org/2000/svg" version="1.1" viewBox="0 0 1713.41 200.28">
  <!-- Generator: Adobe Illustrator 29.5.1, SVG Export Plug-In . SVG Version: 2.1.0 Build 141)  -->
  <defs>
    <style>
      .st0 {
        fill: #00baff;
      }

      .st1 {
        fill: #2c2c2c;
      }

      .st2 {
        fill: #fff;
      }

      .st3 {
        fill: #a7ddf4;
      }

      .st4 {
        fill: #0052d9;
      }
    </style>
  </defs>
  <circle class="st3" cx="103.35" cy="97.76" r="83.4"/>
  <path class="st4" d="M105.49,14.41c22.03,1.12,39.56,19.34,39.56,41.65s-18.67,41.7-41.7,41.7-41.7,18.67-41.7,41.7,18.67,41.7,41.7,41.7c.72,0,1.44-.02,2.15-.05,45.07-1.14,81.26-38.01,81.26-83.35S150.56,15.56,105.49,14.41Z"/>
  <path class="st0" d="M104.15,14.4c17.54.43,31.63,14.75,31.63,32.39,0,14.88-10.05,27.8-24.74,31.52,0,0,.13-.03.32-.06-12.58,2.68-22.02,13.85-22.02,27.23,0,15.38,12.47,27.85,27.85,27.85,3.99,0,9.43-.94,12.87-2.45,22.19-8.97,36.19-30.62,36.19-56.02,0-33.42-27.09-60.51-60.51-60.51-.54,0-1.06.03-1.6.04ZM112.97,77.99s.05,0,.08-.01c-.03,0-.05,0-.08.01Z"/>
  <path class="st4" d="M41.63,119.45c0-16.85,6.76-32.12,17.71-43.26v-.05s0,0,0,0c2.85-3.11,4.61-7.24,4.61-11.79,0-9.65-7.82-17.47-17.47-17.47-6.72,0-12.55,3.8-15.47,9.37,0,0,0,0,0,0-7.04,12.23-11.08,26.4-11.08,41.52,0,45,35.64,81.65,80.23,83.32-32.61-1.65-58.54-28.62-58.54-61.64Z"/>
  <path class="st4" d="M100.17,181.09c1.05.05,2.11.08,3.18.08-1.07,0-2.12-.04-3.18-.08Z"/>
  <path class="st2" d="M104.15,14.4h0c17.54.43,31.63,14.75,31.63,32.39,0,14.89-10.21,27.81-24.74,31.52-11.07,2.56-19.23,11.29-21.15,21.67,0,0,5.98-2.22,13.37-2.22,0,0-.03,0-.06,0,.05,0,.1,0,.15,0,23.03,0,41.7-18.67,41.7-41.7S126.8,14.83,104.15,14.4Z"/>
  <path class="st2" d="M826.76,612.21h20.65l20.37,45.22h.24c1.62-2.22,36.73-45.22,36.73-45.22h21.81l-51.32,59.76-7.23,41.03h-18.97l7.19-40.78-29.46-60Z"/>
  <circle class="st3" cx="103.35" cy="662.91" r="83.4"/>
  <path class="st4" d="M105.49,579.56c22.03,1.12,39.56,19.34,39.56,41.65s-18.67,41.7-41.7,41.7-41.7,18.67-41.7,41.7,18.67,41.7,41.7,41.7c.72,0,1.44-.02,2.15-.05,45.07-1.14,81.26-38.01,81.26-83.35s-36.19-82.21-81.26-83.35Z"/>
  <path class="st0" d="M104.15,579.55c17.54.43,31.63,14.75,31.63,32.39,0,14.88-10.05,27.8-24.74,31.52,0,0,.13-.03.32-.06-12.58,2.68-22.02,13.85-22.02,27.23,0,15.38,12.47,27.85,27.85,27.85,3.99,0,9.43-.94,12.87-2.45,22.19-8.97,36.19-30.62,36.19-56.02,0-33.42-27.09-60.51-60.51-60.51-.54,0-1.06.03-1.6.04ZM112.97,643.14s.05,0,.08-.01c-.03,0-.05,0-.08.01Z"/>
  <path class="st4" d="M41.63,684.6c0-16.85,6.76-32.12,17.71-43.26v-.05s0,0,0,0c2.85-3.11,4.61-7.24,4.61-11.79,0-9.65-7.82-17.47-17.47-17.47-6.72,0-12.55,3.8-15.47,9.37,0,0,0,0,0,0-7.04,12.23-11.08,26.4-11.08,41.52,0,45,35.64,81.65,80.23,83.32-32.61-1.65-58.54-28.62-58.54-61.64Z"/>
  <path class="st4" d="M100.17,746.24c1.05.05,2.11.08,3.18.08-1.07,0-2.12-.04-3.18-.08Z"/>
  <path class="st2" d="M104.15,579.55h0c17.54.43,31.63,14.75,31.63,32.39,0,14.89-10.21,27.81-24.74,31.52-11.07,2.56-19.23,11.29-21.15,21.67,0,0,5.98-2.22,13.37-2.22,0,0-.03,0-.06,0,.05,0,.1,0,.15,0,23.03,0,41.7-18.67,41.7-41.7s-18.24-41.23-40.9-41.66Z"/>
  <path class="st2" d="M285.41,627.13h-24.46l-15.15,85.87h-17.94l15.15-85.87h-24.59l2.66-14.76h66.99l-2.66,14.76Z"/>
  <path class="st2" d="M343.49,651.59c0,1.6-.13,3.72-.53,5.85l-1.86,10.5c-2.13,11.83-6.51,15.95-17.55,15.95h-29.24l-.67,4.12c-.4,2.26-.67,4.39-.67,5.85,0,4.65,2.39,5.72,10.1,5.72h26.72l-5.45,13.43h-24.46c-17.28,0-23.39-4.38-23.39-15.15,0-2.79.4-6.11.93-9.3l5.18-29.77c3.19-18.34,10.9-22.07,30.44-22.07h9.04c13.96,0,21.4,3.72,21.4,14.89ZM326.87,653.98c0-3.19-2-3.98-8.11-3.98h-9.44c-6.11,0-9.04.8-10.5,8.77l-2.13,12.23h22.59c3.72,0,5.18-1.46,5.72-4.92l1.46-8.64c.27-1.6.4-2.53.4-3.46Z"/>
  <path class="st2" d="M418.32,651.19c0,3.59-.8,8.51-2.13,16.21l-7.98,45.59h-16.48l8.11-45.59c.93-5.18,1.33-8.51,1.33-10.5,0-4.65-1.99-5.58-8.24-5.58h-19.41l-10.76,61.68h-16.48l13.16-75.37h36.55c17.01,0,22.33,3.99,22.33,13.56Z"/>
  <path class="st2" d="M427.07,695.59c0-3.05.53-7.44,1.73-14.22l3.06-17.41c3.72-21.4,8.91-26.32,31.1-26.32h24.59l-5.58,13.43h-19.94c-9.7,0-11.7,2.66-13.56,12.63l-3.19,17.68c-1.06,5.72-1.6,9.04-1.6,11.43,0,5.72,2.93,6.78,11.7,6.78h23.26l-5.72,13.43h-21.93c-16.88,0-23.93-4.78-23.93-17.41Z"/>
  <path class="st2" d="M556.4,651.59c0,1.6-.13,3.72-.53,5.85l-1.86,10.5c-2.13,11.83-6.51,15.95-17.55,15.95h-29.24l-.67,4.12c-.4,2.26-.67,4.39-.67,5.85,0,4.65,2.39,5.72,10.1,5.72h26.72l-5.45,13.43h-24.46c-17.28,0-23.39-4.38-23.39-15.15,0-2.79.4-6.11.93-9.3l5.18-29.77c3.19-18.34,10.9-22.07,30.44-22.07h9.04c13.96,0,21.4,3.72,21.4,14.89ZM539.78,653.98c0-3.19-1.99-3.98-8.11-3.98h-9.44c-6.11,0-9.04.8-10.5,8.77l-2.13,12.23h22.59c3.72,0,5.18-1.46,5.72-4.92l1.46-8.64c.27-1.6.4-2.53.4-3.46Z"/>
  <path class="st2" d="M631.22,651.19c0,3.59-.8,8.51-2.13,16.21l-7.98,45.59h-16.48l8.11-45.59c.93-5.18,1.33-8.51,1.33-10.5,0-4.65-1.99-5.58-8.24-5.58h-19.41l-10.76,61.68h-16.48l13.16-75.37h36.55c17.01,0,22.33,3.99,22.33,13.56Z"/>
  <path class="st2" d="M662.71,684.95c-.67,3.59-1.2,7.05-1.2,9.17,0,5.32,3.32,5.45,11.96,5.45h9.04l-5.72,13.43h-9.7c-14.89,0-22.33-3.99-22.33-15.68,0-3.46.67-8.11,1.46-12.36l5.98-33.89h-9.84l2.26-13.43h9.97l3.99-22.33h16.48l-3.99,22.33h21.13l-2.39,13.43h-21.13l-5.98,33.89Z"/>
  <path class="st2" d="M818.75,612.38l-17.68,100.62h-17.81l7.84-44.26h-41.74s-7.84,44.26-7.84,44.26h-17.81l17.68-100.62h17.81l-7.31,41.6h41.74l7.31-41.6h17.81Z"/>
  <g>
    <path class="st1" d="M826.76,47.06h20.65l20.37,45.22h.24c1.62-2.22,36.73-45.22,36.73-45.22h21.81l-51.32,59.76-7.23,41.03h-18.97l7.19-40.78-29.46-60Z"/>
    <path class="st1" d="M285.41,61.98h-24.46l-15.15,85.87h-17.94l15.15-85.87h-24.59l2.66-14.76h66.99l-2.66,14.76Z"/>
    <path class="st1" d="M343.49,86.44c0,1.6-.13,3.72-.53,5.85l-1.86,10.5c-2.13,11.83-6.51,15.95-17.55,15.95h-29.24l-.67,4.12c-.4,2.26-.67,4.39-.67,5.85,0,4.65,2.39,5.72,10.1,5.72h26.72l-5.45,13.43h-24.46c-17.28,0-23.39-4.38-23.39-15.15,0-2.79.4-6.11.93-9.3l5.18-29.77c3.19-18.34,10.9-22.07,30.44-22.07h9.04c13.96,0,21.4,3.72,21.4,14.89ZM326.87,88.83c0-3.19-2-3.98-8.11-3.98h-9.44c-6.11,0-9.04.8-10.5,8.77l-2.13,12.23h22.59c3.72,0,5.18-1.46,5.72-4.92l1.46-8.64c.27-1.6.4-2.53.4-3.46Z"/>
    <path class="st1" d="M418.32,86.04c0,3.59-.8,8.51-2.13,16.21l-7.98,45.59h-16.48l8.11-45.59c.93-5.18,1.33-8.51,1.33-10.5,0-4.65-1.99-5.58-8.24-5.58h-19.41l-10.76,61.68h-16.48l13.16-75.37h36.55c17.01,0,22.33,3.99,22.33,13.56Z"/>
    <path class="st1" d="M427.07,130.44c0-3.05.53-7.44,1.73-14.22l3.06-17.41c3.72-21.4,8.91-26.32,31.1-26.32h24.59l-5.58,13.43h-19.94c-9.7,0-11.7,2.66-13.56,12.63l-3.19,17.68c-1.06,5.72-1.6,9.04-1.6,11.43,0,5.72,2.93,6.78,11.7,6.78h23.26l-5.72,13.43h-21.93c-16.88,0-23.93-4.78-23.93-17.41Z"/>
    <path class="st1" d="M556.4,86.44c0,1.6-.13,3.72-.53,5.85l-1.86,10.5c-2.13,11.83-6.51,15.95-17.55,15.95h-29.24l-.67,4.12c-.4,2.26-.67,4.39-.67,5.85,0,4.65,2.39,5.72,10.1,5.72h26.72l-5.45,13.43h-24.46c-17.28,0-23.39-4.38-23.39-15.15,0-2.79.4-6.11.93-9.3l5.18-29.77c3.19-18.34,10.9-22.07,30.44-22.07h9.04c13.96,0,21.4,3.72,21.4,14.89ZM539.78,88.83c0-3.19-1.99-3.98-8.11-3.98h-9.44c-6.11,0-9.04.8-10.5,8.77l-2.13,12.23h22.59c3.72,0,5.18-1.46,5.72-4.92l1.46-8.64c.27-1.6.4-2.53.4-3.46Z"/>
    <path class="st1" d="M631.22,86.04c0,3.59-.8,8.51-2.13,16.21l-7.98,45.59h-16.48l8.11-45.59c.93-5.18,1.33-8.51,1.33-10.5,0-4.65-1.99-5.58-8.24-5.58h-19.41l-10.76,61.68h-16.48l13.16-75.37h36.55c17.01,0,22.33,3.99,22.33,13.56Z"/>
    <path class="st1" d="M662.71,119.8c-.67,3.59-1.2,7.05-1.2,9.17,0,5.32,3.32,5.45,11.96,5.45h9.04l-5.72,13.43h-9.7c-14.89,0-22.33-3.99-22.33-15.68,0-3.46.67-8.11,1.46-12.36l5.98-33.89h-9.84l2.26-13.43h9.97l3.99-22.33h16.48l-3.99,22.33h21.13l-2.39,13.43h-21.13l-5.98,33.89Z"/>
    <path class="st1" d="M818.75,47.23l-17.68,100.62h-17.81l7.84-44.26h-41.74l-7.84,44.26h-17.81l17.68-100.62h17.81l-7.31,41.6h41.74l7.31-41.6h17.81Z"/>
    <g>
      <path class="st1" d="M915.82,113.04l2.53-14.23h39.1l-2.53,14.23h-39.1Z"/>
      <path class="st1" d="M1043.63,47.2h16.62l-51.87,100.68h-20.22l-12.5-100.68h17.69l9.44,80.33,40.83-80.33Z"/>
      <path class="st1" d="M1051.21,147.88l13.17-75.41h16.49l-13.17,75.41h-16.49ZM1066.24,60.1l3.06-17.02h17.02l-3.06,17.02h-17.02Z"/>
      <path class="st1" d="M1148.97,41.75h16.49l-18.75,106.13h-33.38c-8.51,0-14.63-1.35-18.35-4.06-3.72-2.7-5.59-7.16-5.59-13.37,0-2.93.58-7.67,1.73-14.23l3.06-17.69c.88-5.41,2-9.78,3.33-13.1s3.1-5.94,5.32-7.85c2.22-1.91,5.12-3.24,8.71-3.99,3.59-.75,8.18-1.13,13.77-1.13h18.22l5.45-30.72ZM1117.84,134.45h14.76l8.51-48.54h-16.76c-2.48,0-4.59.22-6.32.67-1.73.44-3.17,1.42-4.32,2.93-1.15,1.51-2.13,4.52-2.93,9.04l-3.19,17.96c-.98,5.23-1.46,8.96-1.46,11.17,0,2.75.84,4.57,2.53,5.45,1.68.89,4.74,1.33,9.18,1.33Z"/>
      <path class="st1" d="M1213.6,71.54c5.41,0,9.62.55,12.63,1.66,3.01,1.11,5.23,2.75,6.65,4.92,1.42,2.17,2.13,4.94,2.13,8.31,0,2.04-.18,3.99-.53,5.85l-1.86,10.51c-1.06,5.94-2.88,10.09-5.45,12.44-2.57,2.35-6.61,3.52-12.1,3.52h-29.26l-.67,4.12c-.45,2.48-.67,4.43-.67,5.85,0,2.22.71,3.72,2.13,4.52,1.42.8,4.08,1.2,7.98,1.2h26.73l-5.45,13.43h-24.47c-3.19,0-6.25-.2-9.18-.6-2.93-.4-5.43-1.11-7.51-2.13-2.08-1.02-3.72-2.51-4.92-4.46-1.2-1.95-1.79-4.61-1.79-7.98,0-2.48.31-5.59.93-9.31l5.19-29.79c.88-5.14,2.24-9.31,4.06-12.5,1.82-3.19,4.59-5.59,8.31-7.18,3.72-1.6,9.75-2.39,18.09-2.39h9.04ZM1217.99,92.29c.27-1.6.4-2.75.4-3.46,0-1.51-.58-2.55-1.73-3.13-1.15-.58-3.28-.86-6.38-.86h-9.44c-2.48,0-4.41.27-5.79.8-1.38.53-2.42,1.53-3.13,2.99-.71,1.46-1.24,3.13-1.6,4.99l-2.13,12.24h22.61c1.77,0,3.1-.38,3.99-1.13.89-.75,1.46-2.02,1.73-3.79l1.46-8.65Z"/>
      <path class="st1" d="M1265.87,148.82c-8.51,0-14.63-1.33-18.35-3.99-3.72-2.66-5.59-7.14-5.59-13.43,0-2.93.58-7.67,1.73-14.23l3.46-19.55c.97-5.5,2.11-9.91,3.39-13.23,1.28-3.33,3.04-5.92,5.25-7.78,2.22-1.86,5.1-3.17,8.65-3.92,3.54-.75,8.16-1.13,13.83-1.13h9.18c8.51,0,14.63,1.33,18.35,3.99,3.72,2.66,5.59,7.14,5.59,13.43,0,2.93-.58,7.67-1.73,14.23l-3.46,19.55c-.98,5.5-2.11,9.91-3.39,13.23-1.29,3.32-3.04,5.92-5.25,7.78-2.22,1.86-5.1,3.17-8.65,3.92-3.55.75-8.16,1.13-13.83,1.13h-9.18ZM1270.12,135.38h5.99c2.48,0,4.61-.24,6.38-.73,1.77-.49,3.21-1.48,4.32-2.99,1.11-1.51,2.06-4.52,2.86-9.04l3.46-19.55c1.06-5.76,1.6-9.58,1.6-11.44,0-2.75-.82-4.57-2.46-5.45-1.64-.89-4.68-1.33-9.11-1.33h-5.99c-2.48,0-4.61.25-6.38.73-1.77.49-3.21,1.49-4.32,2.99-1.11,1.51-2.06,4.52-2.86,9.04l-3.46,19.55c-1.06,5.68-1.6,9.49-1.6,11.44,0,2.75.82,4.57,2.46,5.45,1.64.89,4.68,1.33,9.11,1.33Z"/>
      <path class="st1" d="M1326.78,113.04l2.53-14.23h39.1l-2.53,14.23h-39.1Z"/>
      <path class="st1" d="M1440.36,47.2c2.66,0,5.25.13,7.78.4,2.53.27,4.72.8,6.58,1.6,1.86.8,3.37,2.02,4.52,3.66,1.15,1.64,1.73,4.01,1.73,7.12,0,2.84-.62,7.89-1.86,15.16l-2.26,12.64c-.89,5.14-2.04,9.4-3.46,12.77-1.42,3.37-3.24,6.03-5.45,7.98-2.22,1.95-5.01,3.35-8.38,4.19-3.37.84-7.49,1.26-12.37,1.26h-25.14l-5.99,33.92h-17.82l17.69-100.68h44.42ZM1441.29,75.13c.8-4.43,1.2-7.36,1.2-8.78,0-1.95-.71-3.26-2.13-3.92-1.42-.66-4.04-1-7.85-1h-21.28l-6.65,38.3h20.48c3.28,0,5.85-.47,7.71-1.4,1.86-.93,3.33-2.53,4.39-4.79,1.06-2.26,2.04-6.05,2.93-11.37l1.2-7.05Z"/>
      <path class="st1" d="M1524.55,47.2c2.66,0,5.25.13,7.78.4,2.53.27,4.72.8,6.58,1.6,1.86.8,3.37,2.02,4.52,3.66,1.15,1.64,1.73,4.01,1.73,7.12,0,3.55-.62,8.6-1.86,15.16l-2.79,15.43c-.89,4.7-2.24,8.31-4.06,10.84-1.82,2.53-4.26,4.32-7.32,5.39-3.06,1.06-7.51,1.6-13.37,1.6l17.82,39.5h-17.96l-18.75-42.29,1.73-9.58h13.7c3.19,0,5.45-.35,6.78-1.06,1.33-.71,2.3-1.73,2.93-3.06.62-1.33,1.11-2.93,1.46-4.79l2-11.97c.71-4.34,1.08-6.8,1.13-7.38.04-.58.07-1.04.07-1.4,0-1.95-.71-3.26-2.13-3.92-1.42-.66-4.04-1-7.85-1h-21.68l-15.16,86.45h-17.82l17.69-100.68h44.82Z"/>
      <path class="st1" d="M1616.19,61.7h-35.91l-4.92,27.93h36.44l-5.98,14.23h-32.98l-7.71,44.02h-17.82l17.69-100.68h57.32l-6.12,14.5Z"/>
      <path class="st1" d="M1639.06,133.12h39.5l-6.12,14.76h-53.87l17.69-100.68h17.82l-15.03,85.92Z"/>
    </g>
  </g>
</svg>